<svg id="Layer_1" data-name="Layer 1" xmlns="http://www.w3.org/2000/svg" viewBox="0 0 54.3 54.3">
  <defs>
    <style>
      .sortIconPath {
        fill: #0243be;
      }
    </style>
  </defs>
  <g id="Page-1">
    <g id="End-Count-v1">
      <g id="sort-_1_-2" data-name="sort-(1)-2">
        <g id="sort-_1_" data-name="sort-(1)">
          <path id="Path" class="sortIconPath" d="M28.73,18.91h12.2a1.48,1.48,0,0,0,.63-.12c.16-.08.24-.18.24-.31V15.93a.36.36,0,0,0-.24-.31,1.48,1.48,0,0,0-.63-.12H28.73a1.4,1.4,0,0,0-.62.12c-.17.08-.25.19-.25.31v2.55c0,.13.08.23.25.31A1.4,1.4,0,0,0,28.73,18.91Z"/>
          <path id="Path-2" data-name="Path" class="sortIconPath" d="M28.79,2h7.44a1.56,1.56,0,0,1,.66.12c.18.08.26.18.26.3V5c0,.12-.08.23-.26.31a1.56,1.56,0,0,1-.66.12H28.79a1.64,1.64,0,0,1-.67-.12c-.17-.08-.26-.19-.26-.31V2.45c0-.12.09-.22.26-.3A1.64,1.64,0,0,1,28.79,2Z"/>
          <path id="Path-3" data-name="Path" class="sortIconPath" d="M22.27,42h-5.7V2.79a.87.87,0,0,0-.27-.66.94.94,0,0,0-.68-.26H9.92a1,1,0,0,0-.68.26A.87.87,0,0,0,9,2.79V42H3.28a.88.88,0,0,0-.89.57.85.85,0,0,0,.2,1l9.5,9.13a1.09,1.09,0,0,0,.68.26,1,1,0,0,0,.68-.26l9.47-9.1a1,1,0,0,0,.29-.68.86.86,0,0,0-.26-.66A1,1,0,0,0,22.27,42Z"/>
          <path id="Path-4" data-name="Path" class="sortIconPath" d="M53.16,49.7a1.56,1.56,0,0,0-.66-.12H28.77a1.54,1.54,0,0,0-.65.12c-.17.08-.26.18-.26.3v2.56c0,.12.09.23.26.31a1.54,1.54,0,0,0,.65.12H52.5a1.56,1.56,0,0,0,.66-.12c.17-.08.26-.19.26-.31V50C53.42,49.88,53.33,49.78,53.16,49.7Z"/>
          <path id="Path-5" data-name="Path" class="sortIconPath" d="M28.81,36h19a1.63,1.63,0,0,0,.68-.12c.18-.08.27-.18.27-.31V33c0-.13-.09-.23-.27-.31a1.63,1.63,0,0,0-.68-.12h-19a1.66,1.66,0,0,0-.68.12c-.18.08-.27.18-.27.31v2.55c0,.13.09.23.27.31A1.66,1.66,0,0,0,28.81,36Z"/>
        </g>
      </g>
    </g>
  </g>
</svg>
